# xmcd CD database file
#
# Track frame offsets:
#	150
#	9353
#	28906
#	43683
#	59785
#	83379
#	92587
#	107741
#
# Disc length: 1652 seconds
#
# Revision: 0
# Processed by: cddbd v1.5.2PL0 Copyright (c) Steve Scherf et al.
# Submitted via: CDex 1.51
#
DISCID=5b067208
DTITLE=Al Jarreau - Ain't no sunshine
DYEAR=2002
DGENRE=Jazz
TTITLE0=Ain't no sunshine
TTITLE1=Lean on me
TTITLE2=The same love that made me laugh
TTITLE3=Lonely town, lonely street
TTITLE4=You
TTITLE5=Grandmas' hands
TTITLE6=Kissing my love
TTITLE7=Use me
EXTD=YEAR: 2002
EXTT0=
EXTT1=
EXTT2=
EXTT3=
EXTT4=
EXTT5=
EXTT6=
EXTT7=
PLAYORDER=
